<mxfile host="app.diagrams.net" modified="2022-03-29T07:23:05.374Z" agent="5.0 (Windows NT 10.0; Win64; x64) AppleWebKit/537.36 (KHTML, like Gecko) Chrome/99.0.4844.84 Safari/537.36" etag="Gmg9Vtsv7BlbBBRh7fNT" version="17.2.4" type="github">
  <diagram name="Page-1" id="b520641d-4fe3-3701-9064-5fc419738815">
    <mxGraphModel dx="1328" dy="762" grid="1" gridSize="10" guides="1" tooltips="1" connect="1" arrows="1" fold="1" page="1" pageScale="1" pageWidth="1100" pageHeight="850" background="none" math="0" shadow="0">
      <root>
        <mxCell id="0" />
        <mxCell id="1" parent="0" />
        <mxCell id="tPE-32FipRdGpnMbUiPh-1" value="HOME" style="swimlane;fontStyle=1;childLayout=stackLayout;horizontal=1;startSize=30;horizontalStack=0;resizeParent=1;resizeParentMax=0;resizeLast=0;collapsible=1;marginBottom=0;fillColor=#dae8fc;strokeColor=default;gradientColor=none;swimlaneFillColor=default;strokeWidth=2;perimeterSpacing=0;rounded=1;shadow=1;sketch=0;glass=0;fontSize=14;" vertex="1" parent="1">
          <mxGeometry x="40" y="120" width="240" height="360" as="geometry">
            <mxRectangle x="50" y="140" width="70" height="30" as="alternateBounds" />
          </mxGeometry>
        </mxCell>
        <mxCell id="tPE-32FipRdGpnMbUiPh-5" value="Menú principal" style="text;strokeColor=#006EAF;fillColor=#1ba1e2;align=center;verticalAlign=middle;spacingLeft=4;spacingRight=4;overflow=hidden;points=[[0,0.5],[1,0.5]];portConstraint=eastwest;rotatable=0;strokeWidth=2;fontStyle=0;fontSize=14;fontColor=#ffffff;" vertex="1" parent="tPE-32FipRdGpnMbUiPh-1">
          <mxGeometry y="30" width="240" height="30" as="geometry" />
        </mxCell>
        <mxCell id="tPE-32FipRdGpnMbUiPh-9" value="Banners campañas" style="text;strokeColor=none;fillColor=none;align=center;verticalAlign=middle;spacingLeft=4;spacingRight=4;overflow=hidden;points=[[0,0.5],[1,0.5]];portConstraint=eastwest;rotatable=0;strokeWidth=2;fontStyle=0;fontSize=14;" vertex="1" parent="tPE-32FipRdGpnMbUiPh-1">
          <mxGeometry y="60" width="240" height="30" as="geometry" />
        </mxCell>
        <mxCell id="tPE-32FipRdGpnMbUiPh-10" value="Busqueda categoría" style="text;strokeColor=none;fillColor=none;align=center;verticalAlign=middle;spacingLeft=4;spacingRight=4;overflow=hidden;points=[[0,0.5],[1,0.5]];portConstraint=eastwest;rotatable=0;strokeWidth=2;fontStyle=0;fontSize=14;" vertex="1" parent="tPE-32FipRdGpnMbUiPh-1">
          <mxGeometry y="90" width="240" height="30" as="geometry" />
        </mxCell>
        <mxCell id="tPE-32FipRdGpnMbUiPh-11" value="Busqueda inteligente" style="text;strokeColor=none;fillColor=none;align=center;verticalAlign=middle;spacingLeft=4;spacingRight=4;overflow=hidden;points=[[0,0.5],[1,0.5]];portConstraint=eastwest;rotatable=0;strokeWidth=2;fontStyle=0;fontSize=14;" vertex="1" parent="tPE-32FipRdGpnMbUiPh-1">
          <mxGeometry y="120" width="240" height="30" as="geometry" />
        </mxCell>
        <mxCell id="tPE-32FipRdGpnMbUiPh-12" value="Componente Financiación" style="text;strokeColor=none;fillColor=none;align=center;verticalAlign=middle;spacingLeft=4;spacingRight=4;overflow=hidden;points=[[0,0.5],[1,0.5]];portConstraint=eastwest;rotatable=0;strokeWidth=2;fontStyle=0;fontSize=14;" vertex="1" parent="tPE-32FipRdGpnMbUiPh-1">
          <mxGeometry y="150" width="240" height="30" as="geometry" />
        </mxCell>
        <mxCell id="tPE-32FipRdGpnMbUiPh-13" value="Acceso Tasador" style="text;strokeColor=none;fillColor=none;align=center;verticalAlign=middle;spacingLeft=4;spacingRight=4;overflow=hidden;points=[[0,0.5],[1,0.5]];portConstraint=eastwest;rotatable=0;strokeWidth=2;fontStyle=0;fontSize=14;" vertex="1" parent="tPE-32FipRdGpnMbUiPh-1">
          <mxGeometry y="180" width="240" height="30" as="geometry" />
        </mxCell>
        <mxCell id="tPE-32FipRdGpnMbUiPh-16" value="Slider - listado - coches recientes" style="text;strokeColor=none;fillColor=none;align=center;verticalAlign=middle;spacingLeft=4;spacingRight=4;overflow=hidden;points=[[0,0.5],[1,0.5]];portConstraint=eastwest;rotatable=0;strokeWidth=2;fontStyle=0;fontSize=14;" vertex="1" parent="tPE-32FipRdGpnMbUiPh-1">
          <mxGeometry y="210" width="240" height="30" as="geometry" />
        </mxCell>
        <mxCell id="tPE-32FipRdGpnMbUiPh-17" value="Testimonios" style="text;strokeColor=none;fillColor=none;align=center;verticalAlign=middle;spacingLeft=4;spacingRight=4;overflow=hidden;points=[[0,0.5],[1,0.5]];portConstraint=eastwest;rotatable=0;strokeWidth=2;fontStyle=0;fontSize=14;" vertex="1" parent="tPE-32FipRdGpnMbUiPh-1">
          <mxGeometry y="240" width="240" height="30" as="geometry" />
        </mxCell>
        <mxCell id="tPE-32FipRdGpnMbUiPh-18" value="Testimonios" style="text;strokeColor=none;fillColor=none;align=center;verticalAlign=middle;spacingLeft=4;spacingRight=4;overflow=hidden;points=[[0,0.5],[1,0.5]];portConstraint=eastwest;rotatable=0;strokeWidth=2;fontStyle=0;fontSize=14;" vertex="1" parent="tPE-32FipRdGpnMbUiPh-1">
          <mxGeometry y="270" width="240" height="30" as="geometry" />
        </mxCell>
        <mxCell id="tPE-32FipRdGpnMbUiPh-19" value="Bullets de info + URLs" style="text;strokeColor=none;fillColor=none;align=center;verticalAlign=middle;spacingLeft=4;spacingRight=4;overflow=hidden;points=[[0,0.5],[1,0.5]];portConstraint=eastwest;rotatable=0;strokeWidth=2;fontStyle=0;fontSize=14;" vertex="1" parent="tPE-32FipRdGpnMbUiPh-1">
          <mxGeometry y="300" width="240" height="30" as="geometry" />
        </mxCell>
        <mxCell id="tPE-32FipRdGpnMbUiPh-20" value="Footer" style="text;strokeColor=#3700CC;fillColor=#363636;align=center;verticalAlign=middle;spacingLeft=4;spacingRight=4;overflow=hidden;points=[[0,0.5],[1,0.5]];portConstraint=eastwest;rotatable=0;strokeWidth=2;fontStyle=0;fontSize=14;fontColor=#ffffff;" vertex="1" parent="tPE-32FipRdGpnMbUiPh-1">
          <mxGeometry y="330" width="240" height="30" as="geometry" />
        </mxCell>
        <mxCell id="tPE-32FipRdGpnMbUiPh-34" value="LISTADO VEHÍCULOS" style="swimlane;fontStyle=1;childLayout=stackLayout;horizontal=1;startSize=30;horizontalStack=0;resizeParent=1;resizeParentMax=0;resizeLast=0;collapsible=1;marginBottom=0;fillColor=#dae8fc;strokeColor=default;gradientColor=none;swimlaneFillColor=default;strokeWidth=2;perimeterSpacing=0;rounded=1;shadow=1;sketch=0;glass=0;fontSize=14;arcSize=0;" vertex="1" parent="1">
          <mxGeometry x="370" y="30" width="240" height="90" as="geometry">
            <mxRectangle x="50" y="140" width="70" height="30" as="alternateBounds" />
          </mxGeometry>
        </mxCell>
        <mxCell id="tPE-32FipRdGpnMbUiPh-36" value="Listado" style="text;strokeColor=none;fillColor=none;align=center;verticalAlign=middle;spacingLeft=4;spacingRight=4;overflow=hidden;points=[[0,0.5],[1,0.5]];portConstraint=eastwest;rotatable=0;strokeWidth=2;fontStyle=0;fontSize=14;" vertex="1" parent="tPE-32FipRdGpnMbUiPh-34">
          <mxGeometry y="30" width="240" height="30" as="geometry" />
        </mxCell>
        <mxCell id="tPE-32FipRdGpnMbUiPh-44" value="Menú lateral de Filtros" style="text;strokeColor=none;fillColor=none;align=center;verticalAlign=middle;spacingLeft=4;spacingRight=4;overflow=hidden;points=[[0,0.5],[1,0.5]];portConstraint=eastwest;rotatable=0;strokeWidth=2;fontStyle=0;fontSize=14;" vertex="1" parent="tPE-32FipRdGpnMbUiPh-34">
          <mxGeometry y="60" width="240" height="30" as="geometry" />
        </mxCell>
      </root>
    </mxGraphModel>
  </diagram>
</mxfile>
